<svg width="26" height="24" viewBox="0 0 26 24" fill="none" xmlns="http://www.w3.org/2000/svg">
<path d="M0 1.6C0 0.716345 0.58203 0 1.3 0H3.9C4.61797 0 5.2 0.716344 5.2 1.6V8C5.2 8.88366 4.61797 9.6 3.9 9.6H1.3C0.58203 9.6 0 8.88366 0 8V1.6Z" fill="white"/>
<path d="M9.1 1.6C9.1 0.716345 9.68203 0 10.4 0H15.6C16.318 0 16.9 0.716344 16.9 1.6V8C16.9 8.88366 16.318 9.6 15.6 9.6H10.4C9.68203 9.6 9.1 8.88366 9.1 8V1.6Z" fill="white"/>
<path d="M20.8 1.6C20.8 0.716345 21.382 0 22.1 0H24.7C25.418 0 26 0.716344 26 1.6V8C26 8.88366 25.418 9.6 24.7 9.6H22.1C21.382 9.6 20.8 8.88366 20.8 8V1.6Z" fill="#477BFF"/>
<path d="M0 16C0 15.1163 0.58203 14.4 1.3 14.4H3.9C4.61797 14.4 5.2 15.1163 5.2 16V22.4C5.2 23.2837 4.61797 24 3.9 24H1.3C0.58203 24 0 23.2837 0 22.4V16Z" fill="white"/>
<path d="M9.1 16C9.1 15.1163 9.68203 14.4 10.4 14.4H15.6C16.318 14.4 16.9 15.1163 16.9 16V22.4C16.9 23.2837 16.318 24 15.6 24H10.4C9.68203 24 9.1 23.2837 9.1 22.4V16Z" fill="white"/>
<path d="M20.8 16C20.8 15.1163 21.382 14.4 22.1 14.4H24.7C25.418 14.4 26 15.1163 26 16V22.4C26 23.2837 25.418 24 24.7 24H22.1C21.382 24 20.8 23.2837 20.8 22.4V16Z" fill="#477BFF"/>
</svg>
